<svg width="540" height="867" viewBox="0 0 540 867" fill="none" xmlns="http://www.w3.org/2000/svg">
<path d="M376.046 93.2515C450.237 79.3659 512.572 -23.4046 582.004 6.20177C649.663 35.0519 617.651 147.959 654.139 211.831C683.928 263.977 756.361 285.657 774.375 342.947C792.424 400.347 779.184 466.527 750.927 519.647C723.951 570.36 647.717 579.049 621.575 630.198C586.15 699.511 644.281 814.957 578.629 856.767C517.363 895.783 444.409 808.637 375.002 787.225C324.551 771.661 269.709 773.336 223.778 747.297C179.034 721.931 146.905 680.829 115.488 640.102C84.3801 599.776 53.4069 558.537 40.2158 509.344C26.8131 459.361 43.2009 407.651 39.3197 356.048C33.884 283.779 -24.2445 205.382 12.6627 143.014C47.5587 84.0458 136.662 86.1441 204.542 76.8483C262.162 68.9576 318.882 103.951 376.046 93.2515Z" fill="#1F1F1F"/>
</svg>
